<svg height="512pt" viewBox="-1 0 512 512" width="512pt" xmlns="http://www.w3.org/2000/svg"><path d="m357.3125 205-88-205h-28.300781l-89 205h-152.011719l34.941406 239.3125.113282.703125c3.492187 19.101563 14.910156 36.5 32.148437 48.988281 16.03125 11.605469 35.632813 17.996094 55.195313 17.996094h265.734374c19.542969 0 39.113282-6.398438 55.113282-18.015625 17.113281-12.421875 28.546875-29.753906 32.199218-48.800781l34.789063-240.183594zm106.175781 43.726562-37.855469 37.855469-41.582031-41.582031h79.976563zm-208.355469 208.355469-57.03125-57.03125 56.898438-56.898437 57.03125 57.03125zm85.183594-28.613281 43.53125 43.53125h-87.066406zm-126.835937 43.53125h-87.332031l43.667968-43.664062zm13.234375-157.132812-56.898438 56.898437-57.402344-57.398437 56.902344-56.898438zm-13.296875-69.867188h83.164062l-41.582031 41.582031zm69.863281 69.867188 57.035156-57.03125 57.03125 57.03125-57.03125 57.03125zm-28.246094-246.722657 58.746094 136.855469h-118.164062zm-129.820312 176.855469-41.082032 41.082031-37.316406-37.316406-.550781-3.765625zm-61.6875 118.253906 20.605468-20.601562 57.398438 57.398437-56.679688 56.675781c-5.324218-5.335937-9.0625-11.722656-10.390624-18.59375zm372.554687 74.792969c-1.433593 6.980469-5.300781 13.46875-10.757812 18.859375l-56.722657-56.722656 57.03125-57.03125 21.128907 21.128906zm0 0"/></svg>